G75*
%MOIN*%
%OFA0B0*%
%FSLAX25Y25*%
%IPPOS*%
%LPD*%
%AMOC8*
5,1,8,0,0,1.08239X$1,22.5*
%
%ADD10OC8,0.06000*%
%ADD11C,0.00600*%
%ADD12C,0.02700*%
%ADD13C,0.01500*%
D10*
X0016300Y0019200D03*
X0026300Y0019200D03*
X0036300Y0019200D03*
X0046300Y0019200D03*
X0056300Y0019200D03*
X0066300Y0019200D03*
X0076300Y0019200D03*
X0086300Y0019200D03*
X0096300Y0019200D03*
X0106300Y0019200D03*
X0116300Y0024200D03*
X0126300Y0024200D03*
X0136300Y0024200D03*
X0136300Y0034200D03*
X0126300Y0034200D03*
X0116300Y0034200D03*
X0106300Y0034200D03*
X0096300Y0034200D03*
X0086300Y0034200D03*
X0076300Y0034200D03*
X0066300Y0034200D03*
X0056300Y0034200D03*
X0046300Y0034200D03*
X0036300Y0034200D03*
X0026300Y0034200D03*
X0016300Y0034200D03*
X0006300Y0034200D03*
D11*
X0016300Y0034200D02*
X0020050Y0034200D01*
X0027550Y0026700D01*
X0038800Y0026700D01*
X0045050Y0024200D02*
X0055050Y0024200D01*
X0062550Y0024200D01*
X0072550Y0034200D01*
X0076300Y0034200D01*
X0061300Y0034200D02*
X0061300Y0032950D01*
X0057550Y0029200D01*
X0035050Y0029200D01*
X0030050Y0034200D01*
X0026300Y0034200D01*
X0041300Y0020450D02*
X0045050Y0024200D01*
X0052550Y0022950D02*
X0053800Y0022950D01*
X0055050Y0024200D01*
X0041300Y0020450D02*
X0041300Y0019200D01*
X0080050Y0022950D02*
X0083800Y0022950D01*
X0085050Y0024200D01*
X0097550Y0024200D01*
X0101300Y0020450D01*
X0101300Y0019200D01*
D12*
X0101300Y0019200D03*
X0102550Y0022950D03*
X0080050Y0022950D03*
X0052550Y0022950D03*
X0041300Y0019200D03*
X0038800Y0026700D03*
X0061300Y0034200D03*
D13*
X0066300Y0034200D02*
X0058800Y0026700D01*
X0043800Y0026700D01*
X0036300Y0019200D01*
X0056300Y0019200D02*
X0060050Y0019200D01*
X0070050Y0029200D01*
X0101300Y0029200D01*
X0106300Y0034200D01*
X0112550Y0026700D02*
X0115050Y0029200D01*
X0121300Y0029200D01*
X0126300Y0034200D01*
X0131300Y0029200D02*
X0136300Y0034200D01*
X0131300Y0029200D02*
X0125050Y0029200D01*
X0120050Y0024200D01*
X0116300Y0024200D01*
X0103800Y0024200D01*
X0102550Y0022950D01*
X0112550Y0026700D02*
X0077550Y0026700D01*
X0070050Y0019200D01*
X0066300Y0019200D01*
X0131300Y0029200D02*
X0136300Y0024200D01*
M02*
