%
M48
M72
T01C0.0130
T02C0.0400
%
T01
X4130Y1920
X5255Y2295
X3880Y2670
X6130Y3420
X8005Y2295
X10130Y1920
X10255Y2295
T02
X1630Y1920
X2630Y1920
X3630Y1920
X4630Y1920
X5630Y1920
X6630Y1920
X7630Y1920
X8630Y1920
X9630Y1920
X10630Y1920
X11630Y2420
X12630Y2420
X13630Y2420
X13630Y3420
X12630Y3420
X11630Y3420
X10630Y3420
X9630Y3420
X8630Y3420
X7630Y3420
X6630Y3420
X5630Y3420
X4630Y3420
X3630Y3420
X2630Y3420
X1630Y3420
X630Y3420
M30
