G75*
%MOIN*%
%OFA0B0*%
%FSLAX25Y25*%
%IPPOS*%
%LPD*%
%AMOC8*
5,1,8,0,0,1.08239X$1,22.5*
%
%ADD10OC8,0.06000*%
%ADD11C,0.00600*%
%ADD12C,0.02700*%
%ADD13C,0.01500*%
D10*
X0016300Y0019200D03*
X0026300Y0019200D03*
X0036300Y0019200D03*
X0046300Y0019200D03*
X0056300Y0019200D03*
X0066300Y0019200D03*
X0076300Y0019200D03*
X0086300Y0019200D03*
X0096300Y0019200D03*
X0106300Y0019200D03*
X0116300Y0024200D03*
X0126300Y0024200D03*
X0136300Y0024200D03*
X0136300Y0034200D03*
X0126300Y0034200D03*
X0116300Y0034200D03*
X0106300Y0034200D03*
X0096300Y0034200D03*
X0086300Y0034200D03*
X0076300Y0034200D03*
X0066300Y0034200D03*
X0056300Y0034200D03*
X0046300Y0034200D03*
X0036300Y0034200D03*
X0026300Y0034200D03*
X0016300Y0034200D03*
X0006300Y0034200D03*
D11*
X0016300Y0024200D01*
X0016300Y0019200D01*
X0026300Y0019200D02*
X0030050Y0022950D01*
X0030050Y0029200D01*
X0035050Y0034200D01*
X0036300Y0034200D01*
X0041300Y0029200D02*
X0046300Y0034200D01*
X0056300Y0034200D02*
X0056300Y0026700D01*
X0081300Y0026700D01*
X0082550Y0025450D01*
X0082550Y0022950D01*
X0086300Y0019200D01*
X0076300Y0019200D02*
X0071300Y0024200D01*
X0052550Y0024200D01*
X0052550Y0022950D01*
X0050050Y0022950D02*
X0050050Y0024200D01*
X0051300Y0025450D01*
X0080050Y0025450D01*
X0080050Y0022950D01*
X0086300Y0029200D02*
X0096300Y0019200D01*
X0101300Y0019200D02*
X0101300Y0020450D01*
X0096300Y0025450D01*
X0096300Y0034200D01*
X0086300Y0034200D02*
X0086300Y0029200D01*
X0065050Y0029200D01*
X0061300Y0032950D01*
X0061300Y0034200D01*
X0041300Y0029200D02*
X0036300Y0029200D01*
X0036300Y0025450D01*
X0041300Y0020450D01*
X0041300Y0019200D01*
X0046300Y0019200D02*
X0050050Y0022950D01*
X0056300Y0026700D02*
X0038800Y0026700D01*
X0106300Y0019200D02*
X0111300Y0024200D01*
X0111300Y0029200D01*
X0116300Y0034200D01*
D12*
X0102550Y0022950D03*
X0101300Y0019200D03*
X0080050Y0022950D03*
X0052550Y0022950D03*
X0041300Y0019200D03*
X0038800Y0026700D03*
X0061300Y0034200D03*
D13*
X0102550Y0022950D02*
X0106300Y0026700D01*
X0106300Y0034200D01*
X0126300Y0034200D02*
X0126300Y0024200D01*
M02*
