G75*
%MOIN*%
%OFA0B0*%
%FSLAX25Y25*%
%IPPOS*%
%LPD*%
%AMOC8*
5,1,8,0,0,1.08239X$1,22.5*
%
%ADD10C,0.00200*%
%ADD11C,0.00600*%
D10*
X0053520Y0022634D02*
X0054254Y0021900D01*
X0054988Y0022634D01*
X0054988Y0024102D01*
X0055730Y0023735D02*
X0055730Y0022267D01*
X0056097Y0021900D01*
X0056831Y0021900D01*
X0057198Y0022267D01*
X0057940Y0022267D02*
X0058307Y0021900D01*
X0059041Y0021900D01*
X0059408Y0022267D01*
X0057940Y0022267D02*
X0057940Y0023735D01*
X0058307Y0024102D01*
X0059041Y0024102D01*
X0059408Y0023735D01*
X0057198Y0023735D02*
X0056831Y0024102D01*
X0056097Y0024102D01*
X0055730Y0023735D01*
X0053520Y0024102D02*
X0053520Y0022634D01*
X0063520Y0022267D02*
X0063887Y0021900D01*
X0064621Y0021900D01*
X0064988Y0022267D01*
X0064988Y0023001D01*
X0064254Y0023001D01*
X0063520Y0023735D02*
X0063520Y0022267D01*
X0065730Y0021900D02*
X0065730Y0024102D01*
X0067198Y0021900D01*
X0067198Y0024102D01*
X0067940Y0024102D02*
X0069041Y0024102D01*
X0069408Y0023735D01*
X0069408Y0022267D01*
X0069041Y0021900D01*
X0067940Y0021900D01*
X0067940Y0024102D01*
X0064988Y0023735D02*
X0064621Y0024102D01*
X0063887Y0024102D01*
X0063520Y0023735D01*
X0032747Y0026500D02*
X0032747Y0028702D01*
X0031279Y0028702D02*
X0031279Y0026500D01*
X0030537Y0026867D02*
X0030170Y0026500D01*
X0029436Y0026500D01*
X0029069Y0026867D01*
X0029069Y0028335D01*
X0029436Y0028702D01*
X0030170Y0028702D01*
X0030537Y0028335D01*
X0031279Y0027601D02*
X0032747Y0027601D01*
X0028327Y0026867D02*
X0027960Y0026500D01*
X0027226Y0026500D01*
X0026859Y0026867D01*
X0026859Y0028702D01*
X0026117Y0028335D02*
X0025750Y0028702D01*
X0025016Y0028702D01*
X0024649Y0028335D01*
X0024649Y0026867D01*
X0025016Y0026500D01*
X0025750Y0026500D01*
X0026117Y0026867D01*
X0026117Y0028335D01*
X0023907Y0028702D02*
X0022440Y0028702D01*
X0023173Y0028702D02*
X0023173Y0026500D01*
X0022806Y0026202D02*
X0022440Y0025835D01*
X0022806Y0026202D02*
X0023540Y0026202D01*
X0023907Y0025835D01*
X0023907Y0025468D01*
X0022440Y0024000D01*
X0023907Y0024000D01*
X0024649Y0024367D02*
X0025016Y0024000D01*
X0025750Y0024000D01*
X0026117Y0024367D01*
X0026117Y0024734D01*
X0025750Y0025101D01*
X0024649Y0025101D01*
X0024649Y0024367D01*
X0024649Y0025101D02*
X0025383Y0025835D01*
X0026117Y0026202D01*
X0026859Y0025101D02*
X0027593Y0025835D01*
X0028327Y0026202D01*
X0028327Y0026867D02*
X0028327Y0028702D01*
X0021698Y0027601D02*
X0020230Y0027601D01*
X0020964Y0028335D02*
X0020964Y0026867D01*
X0021331Y0026202D02*
X0021698Y0025835D01*
X0021698Y0025468D01*
X0021331Y0025101D01*
X0020597Y0025101D01*
X0020230Y0025468D01*
X0020230Y0025835D01*
X0020597Y0026202D01*
X0021331Y0026202D01*
X0019488Y0025835D02*
X0019488Y0025101D01*
X0019121Y0024734D01*
X0018020Y0024734D01*
X0017278Y0024734D02*
X0017278Y0024367D01*
X0016911Y0024000D01*
X0016177Y0024000D01*
X0015810Y0024367D01*
X0016177Y0025101D02*
X0016911Y0025101D01*
X0017278Y0024734D01*
X0016177Y0025101D02*
X0015810Y0025468D01*
X0015810Y0025835D01*
X0016177Y0026202D01*
X0016911Y0026202D01*
X0017278Y0025835D01*
X0018020Y0026202D02*
X0019121Y0026202D01*
X0019488Y0025835D01*
X0018020Y0026202D02*
X0018020Y0024000D01*
X0020230Y0024367D02*
X0020230Y0024734D01*
X0020597Y0025101D01*
X0021331Y0025101D02*
X0021698Y0024734D01*
X0021698Y0024367D01*
X0021331Y0024000D01*
X0020597Y0024000D01*
X0020230Y0024367D01*
X0015068Y0024000D02*
X0013600Y0024000D01*
X0013600Y0026202D01*
X0015068Y0026202D01*
X0014334Y0026500D02*
X0014334Y0028702D01*
X0013600Y0028702D02*
X0015068Y0028702D01*
X0015810Y0028702D02*
X0017278Y0028702D01*
X0018020Y0028702D02*
X0019488Y0028702D01*
X0018754Y0028702D02*
X0018754Y0026500D01*
X0015810Y0026500D02*
X0015810Y0028702D01*
X0015810Y0027601D02*
X0016544Y0027601D01*
X0008158Y0026235D02*
X0006690Y0024767D01*
X0007057Y0024400D01*
X0007791Y0024400D01*
X0008158Y0024767D01*
X0008158Y0026235D01*
X0007791Y0026602D01*
X0007057Y0026602D01*
X0006690Y0026235D01*
X0006690Y0024767D01*
X0005948Y0024767D02*
X0005948Y0026235D01*
X0005581Y0026602D01*
X0004480Y0026602D01*
X0004480Y0024400D01*
X0005581Y0024400D01*
X0005948Y0024767D01*
X0013600Y0025101D02*
X0014334Y0025101D01*
X0026859Y0025101D02*
X0026859Y0024367D01*
X0027226Y0024000D01*
X0027960Y0024000D01*
X0028327Y0024367D01*
X0028327Y0024734D01*
X0027960Y0025101D01*
X0026859Y0025101D01*
X0103520Y0030134D02*
X0104254Y0029400D01*
X0104988Y0030134D01*
X0104988Y0031602D01*
X0105730Y0031235D02*
X0106097Y0031602D01*
X0106831Y0031602D01*
X0107198Y0031235D01*
X0107940Y0031235D02*
X0108307Y0031602D01*
X0109041Y0031602D01*
X0109408Y0031235D01*
X0107940Y0031235D02*
X0107940Y0029767D01*
X0108307Y0029400D01*
X0109041Y0029400D01*
X0109408Y0029767D01*
X0107198Y0029767D02*
X0106831Y0029400D01*
X0106097Y0029400D01*
X0105730Y0029767D01*
X0105730Y0031235D01*
X0103520Y0031602D02*
X0103520Y0030134D01*
X0113520Y0029102D02*
X0113520Y0027634D01*
X0114254Y0026900D01*
X0114988Y0027634D01*
X0114988Y0029102D01*
X0115730Y0028735D02*
X0116097Y0029102D01*
X0116831Y0029102D01*
X0117198Y0028735D01*
X0117940Y0028735D02*
X0118307Y0029102D01*
X0119041Y0029102D01*
X0119408Y0028735D01*
X0117940Y0028735D02*
X0117940Y0027267D01*
X0118307Y0026900D01*
X0119041Y0026900D01*
X0119408Y0027267D01*
X0117198Y0027267D02*
X0116831Y0026900D01*
X0116097Y0026900D01*
X0115730Y0027267D01*
X0115730Y0028735D01*
X0123520Y0028735D02*
X0123520Y0027267D01*
X0123887Y0026900D01*
X0124621Y0026900D01*
X0124988Y0027267D01*
X0124988Y0028001D01*
X0124254Y0028001D01*
X0123520Y0028735D02*
X0123887Y0029102D01*
X0124621Y0029102D01*
X0124988Y0028735D01*
X0125730Y0029102D02*
X0127198Y0026900D01*
X0127198Y0029102D01*
X0127198Y0029400D02*
X0127198Y0031602D01*
X0127940Y0031602D02*
X0129041Y0031602D01*
X0129408Y0031235D01*
X0129408Y0029767D01*
X0129041Y0029400D01*
X0127940Y0029400D01*
X0127940Y0031602D01*
X0125730Y0031602D02*
X0127198Y0029400D01*
X0127940Y0029102D02*
X0129041Y0029102D01*
X0129408Y0028735D01*
X0129408Y0027267D01*
X0129041Y0026900D01*
X0127940Y0026900D01*
X0127940Y0029102D01*
X0125730Y0029102D02*
X0125730Y0026900D01*
X0132270Y0027634D02*
X0133004Y0026900D01*
X0133738Y0027634D01*
X0133738Y0029102D01*
X0133004Y0029400D02*
X0133738Y0030134D01*
X0133738Y0031602D01*
X0134480Y0031235D02*
X0134480Y0029767D01*
X0134847Y0029400D01*
X0135581Y0029400D01*
X0135948Y0029767D01*
X0136690Y0029767D02*
X0137057Y0029400D01*
X0137791Y0029400D01*
X0138158Y0029767D01*
X0136690Y0029767D02*
X0136690Y0031235D01*
X0137057Y0031602D01*
X0137791Y0031602D01*
X0138158Y0031235D01*
X0135948Y0031235D02*
X0135581Y0031602D01*
X0134847Y0031602D01*
X0134480Y0031235D01*
X0132270Y0031602D02*
X0132270Y0030134D01*
X0133004Y0029400D01*
X0132270Y0029102D02*
X0132270Y0027634D01*
X0134480Y0027267D02*
X0134847Y0026900D01*
X0135581Y0026900D01*
X0135948Y0027267D01*
X0136690Y0027267D02*
X0137057Y0026900D01*
X0137791Y0026900D01*
X0138158Y0027267D01*
X0136690Y0027267D02*
X0136690Y0028735D01*
X0137057Y0029102D01*
X0137791Y0029102D01*
X0138158Y0028735D01*
X0135948Y0028735D02*
X0135581Y0029102D01*
X0134847Y0029102D01*
X0134480Y0028735D01*
X0134480Y0027267D01*
X0125730Y0029400D02*
X0125730Y0031602D01*
X0124988Y0031235D02*
X0124621Y0031602D01*
X0123887Y0031602D01*
X0123520Y0031235D01*
X0123520Y0029767D01*
X0123887Y0029400D01*
X0124621Y0029400D01*
X0124988Y0029767D01*
X0124988Y0030501D01*
X0124254Y0030501D01*
X0124408Y0010352D02*
X0122940Y0008150D01*
X0124408Y0008150D02*
X0122940Y0010352D01*
X0122198Y0010352D02*
X0120730Y0010352D01*
X0121464Y0010352D02*
X0121464Y0008150D01*
X0118158Y0009102D02*
X0116690Y0006900D01*
X0115948Y0006900D02*
X0115214Y0007634D01*
X0115581Y0007634D02*
X0114480Y0007634D01*
X0114480Y0006900D02*
X0114480Y0009102D01*
X0115581Y0009102D01*
X0115948Y0008735D01*
X0115948Y0008001D01*
X0115581Y0007634D01*
X0116690Y0009102D02*
X0118158Y0006900D01*
X0136020Y0003735D02*
X0136020Y0002267D01*
X0136387Y0001900D01*
X0137121Y0001900D01*
X0137488Y0002267D01*
X0137488Y0003001D01*
X0136754Y0003001D01*
X0136020Y0003735D02*
X0136387Y0004102D01*
X0137121Y0004102D01*
X0137488Y0003735D01*
X0138230Y0004102D02*
X0139698Y0001900D01*
X0139698Y0004102D01*
X0140440Y0004102D02*
X0141541Y0004102D01*
X0141908Y0003735D01*
X0141908Y0002267D01*
X0141541Y0001900D01*
X0140440Y0001900D01*
X0140440Y0004102D01*
X0138230Y0004102D02*
X0138230Y0001900D01*
D11*
X0018800Y0014200D02*
X0013800Y0014200D01*
X0011300Y0016700D01*
X0011300Y0021700D01*
X0013800Y0024200D01*
X0018800Y0024200D01*
X0021300Y0021700D01*
X0023800Y0024200D01*
X0028800Y0024200D01*
X0031300Y0021700D01*
X0031300Y0016700D01*
X0028800Y0014200D01*
X0023800Y0014200D01*
X0021300Y0016700D01*
X0018800Y0014200D01*
X0021300Y0016700D02*
X0021300Y0021700D01*
X0031300Y0021700D02*
X0033800Y0024200D01*
X0038800Y0024200D01*
X0041300Y0021700D01*
X0043800Y0024200D01*
X0048800Y0024200D01*
X0051300Y0021700D01*
X0053800Y0024200D01*
X0058800Y0024200D01*
X0061300Y0021700D01*
X0061300Y0016700D01*
X0058800Y0014200D01*
X0053800Y0014200D01*
X0051300Y0016700D01*
X0048800Y0014200D01*
X0043800Y0014200D01*
X0041300Y0016700D01*
X0038800Y0014200D01*
X0033800Y0014200D01*
X0031300Y0016700D01*
X0041300Y0016700D02*
X0041300Y0021700D01*
X0051300Y0021700D02*
X0051300Y0016700D01*
X0061300Y0016700D02*
X0063800Y0014200D01*
X0068800Y0014200D01*
X0071300Y0016700D01*
X0073800Y0014200D01*
X0078800Y0014200D01*
X0081300Y0016700D01*
X0083800Y0014200D01*
X0088800Y0014200D01*
X0091300Y0016700D01*
X0091300Y0021700D01*
X0088800Y0024200D01*
X0083800Y0024200D01*
X0081300Y0021700D01*
X0081300Y0016700D01*
X0071300Y0016700D02*
X0071300Y0021700D01*
X0073800Y0024200D01*
X0078800Y0024200D01*
X0081300Y0021700D01*
X0071300Y0021700D02*
X0068800Y0024200D01*
X0063800Y0024200D01*
X0061300Y0021700D01*
X0058800Y0029200D02*
X0053800Y0029200D01*
X0051300Y0031700D01*
X0048800Y0029200D01*
X0043800Y0029200D01*
X0041300Y0031700D01*
X0038800Y0029200D01*
X0033800Y0029200D01*
X0031300Y0031700D01*
X0028800Y0029200D01*
X0023800Y0029200D01*
X0021300Y0031700D01*
X0018800Y0029200D01*
X0013800Y0029200D01*
X0011300Y0031700D01*
X0008800Y0029200D01*
X0003800Y0029200D01*
X0001300Y0031700D01*
X0001300Y0036700D01*
X0003800Y0039200D01*
X0008800Y0039200D01*
X0011300Y0036700D01*
X0013800Y0039200D01*
X0018800Y0039200D01*
X0021300Y0036700D01*
X0021300Y0031700D01*
X0011300Y0031700D02*
X0011300Y0036700D01*
X0021300Y0036700D02*
X0023800Y0039200D01*
X0028800Y0039200D01*
X0031300Y0036700D01*
X0033800Y0039200D01*
X0038800Y0039200D01*
X0041300Y0036700D01*
X0043800Y0039200D01*
X0048800Y0039200D01*
X0051300Y0036700D01*
X0051300Y0031700D01*
X0058800Y0029200D02*
X0061300Y0031700D01*
X0063800Y0029200D01*
X0068800Y0029200D01*
X0071300Y0031700D01*
X0073800Y0029200D01*
X0078800Y0029200D01*
X0081300Y0031700D01*
X0081300Y0036700D01*
X0078800Y0039200D01*
X0073800Y0039200D01*
X0071300Y0036700D01*
X0071300Y0031700D01*
X0061300Y0031700D02*
X0061300Y0036700D01*
X0063800Y0039200D01*
X0068800Y0039200D01*
X0071300Y0036700D01*
X0061300Y0036700D02*
X0058800Y0039200D01*
X0053800Y0039200D01*
X0051300Y0036700D01*
X0041300Y0036700D02*
X0041300Y0031700D01*
X0031300Y0031700D02*
X0031300Y0036700D01*
X0081300Y0036700D02*
X0083800Y0039200D01*
X0088800Y0039200D01*
X0091300Y0036700D01*
X0093800Y0039200D01*
X0098800Y0039200D01*
X0101300Y0036700D01*
X0103800Y0039200D01*
X0108800Y0039200D01*
X0111300Y0036700D01*
X0111300Y0031700D01*
X0108800Y0029200D01*
X0103800Y0029200D01*
X0101300Y0031700D01*
X0098800Y0029200D01*
X0093800Y0029200D01*
X0091300Y0031700D01*
X0088800Y0029200D01*
X0083800Y0029200D01*
X0081300Y0031700D01*
X0091300Y0031700D02*
X0091300Y0036700D01*
X0101300Y0036700D02*
X0101300Y0031700D01*
X0111300Y0031700D02*
X0113800Y0029200D01*
X0111300Y0026700D01*
X0111300Y0021700D01*
X0113800Y0019200D01*
X0118800Y0019200D01*
X0121300Y0021700D01*
X0123800Y0019200D01*
X0128800Y0019200D01*
X0131300Y0021700D01*
X0133800Y0019200D01*
X0138800Y0019200D01*
X0141300Y0021700D01*
X0141300Y0026700D01*
X0138800Y0029200D01*
X0133800Y0029200D01*
X0131300Y0026700D01*
X0131300Y0021700D01*
X0121300Y0021700D02*
X0121300Y0026700D01*
X0123800Y0029200D01*
X0128800Y0029200D01*
X0131300Y0026700D01*
X0128800Y0029200D02*
X0123800Y0029200D01*
X0121300Y0031700D01*
X0118800Y0029200D01*
X0121300Y0026700D01*
X0118800Y0029200D02*
X0113800Y0029200D01*
X0118800Y0029200D01*
X0121300Y0031700D02*
X0121300Y0036700D01*
X0123800Y0039200D01*
X0128800Y0039200D01*
X0131300Y0036700D01*
X0133800Y0039200D01*
X0138800Y0039200D01*
X0141300Y0036700D01*
X0141300Y0031700D01*
X0138800Y0029200D01*
X0133800Y0029200D01*
X0131300Y0031700D01*
X0128800Y0029200D01*
X0131300Y0031700D02*
X0131300Y0036700D01*
X0121300Y0036700D02*
X0118800Y0039200D01*
X0113800Y0039200D01*
X0111300Y0036700D01*
X0108800Y0024200D02*
X0103800Y0024200D01*
X0101300Y0021700D01*
X0101300Y0016700D01*
X0103800Y0014200D01*
X0108800Y0014200D01*
X0111300Y0016700D01*
X0111300Y0021700D01*
X0108800Y0024200D01*
X0101300Y0021700D02*
X0098800Y0024200D01*
X0093800Y0024200D01*
X0091300Y0021700D01*
X0091300Y0016700D02*
X0093800Y0014200D01*
X0098800Y0014200D01*
X0101300Y0016700D01*
M02*
